<svg width="405" height="68" viewBox="0 0 405 68" fill="none" xmlns="http://www.w3.org/2000/svg">
<g filter="url(#filter0_i_1_2)">
<path d="M20.376 2.92L27.224 25L41.944 2.92H54.04L45.912 49H34.328L38.936 23.016L29.08 38.504H20.696L16.344 23.016L11.736 49H0.216L8.344 2.92H20.376ZM67.4445 35.24C67.3165 36.008 67.2525 36.776 67.2525 37.544C67.2525 39.592 68.4045 40.616 70.7085 40.616C72.5858 40.616 74.1432 39.9547 75.3805 38.632L78.9645 18.216H89.8445L84.2125 50.024C83.2738 55.4427 81.1192 59.7307 77.7485 62.888C74.4205 66.0453 70.6018 67.624 66.2925 67.624C61.9832 67.624 58.8685 66.8347 56.9485 65.256C55.0712 63.6773 54.1325 61.608 54.1325 59.048C54.1325 55.4213 56.3725 52.2 60.8525 49.384C58.4205 48.7867 56.8845 47.5707 56.2445 45.736C55.8605 44.712 55.6685 43.56 55.6685 42.28C55.6685 41 55.7752 39.6987 55.9885 38.376L59.5725 18.216H70.4525L67.4445 35.24ZM67.7645 58.472C70.5378 58.472 72.3512 55.9547 73.2045 50.92L73.8445 47.208C67.9138 49.9813 64.9485 52.776 64.9485 55.592C64.9485 56.4453 65.1832 57.128 65.6525 57.64C66.1645 58.1947 66.8685 58.472 67.7645 58.472ZM118.217 2.92C123.081 2.92 126.537 3.98667 128.585 6.12C130.121 7.74133 130.889 9.78933 130.889 12.264C130.889 13.1173 130.803 14.0133 130.633 14.952L130.057 18.024C129.587 20.456 128.67 22.3547 127.305 23.72C125.982 25.0853 124.809 25.768 123.785 25.768L123.721 26.28C124.915 26.28 126.131 26.9413 127.369 28.264C128.606 29.5867 129.225 31.144 129.225 32.936C129.225 33.6613 129.139 34.4293 128.969 35.24L128.585 37.224C127.902 40.8933 126.259 43.7733 123.657 45.864C121.097 47.9547 117.513 49 112.905 49H91.5285L99.6565 2.92H118.217ZM112.457 30.184H106.377L104.841 39.016H110.921C111.006 39.016 111.091 39.016 111.177 39.016C113.139 39.016 114.697 38.568 115.849 37.672C117.001 36.7333 117.577 35.6027 117.577 34.28C117.577 31.5493 115.87 30.184 112.457 30.184ZM114.185 12.904H109.385L107.721 22.44H112.457C116.553 22.44 118.601 20.648 118.601 17.064C118.601 15.8267 118.217 14.824 117.449 14.056C116.723 13.288 115.635 12.904 114.185 12.904ZM145.687 39.144C145.687 40.2533 146.242 40.808 147.351 40.808C148.503 40.808 149.463 40.5947 150.231 40.168L149.911 47.4C147.863 49.064 145.559 49.896 142.999 49.896C139.116 49.896 136.599 49 135.447 47.208C134.722 46.056 134.359 44.7973 134.359 43.432C134.359 42.0667 134.444 40.872 134.615 39.848L141.591 0.423996H152.471L145.751 38.376C145.708 38.632 145.687 38.888 145.687 39.144ZM173.357 17.32C177.965 17.32 181.442 18.3227 183.789 20.328C185.623 21.9067 186.541 24.104 186.541 26.92C186.541 27.8587 186.434 28.8827 186.221 29.992L184.877 37.48C184.066 42.0027 182.167 45.2027 179.181 47.08C176.237 48.9573 172.29 49.896 167.341 49.896C162.391 49.896 158.765 48.9573 156.461 47.08C154.754 45.672 153.901 43.56 153.901 40.744C153.901 39.7627 154.007 38.6747 154.221 37.48L155.565 29.992C157.058 21.544 162.989 17.32 173.357 17.32ZM175.085 31.272C175.17 30.8453 175.213 30.312 175.213 29.672C175.213 28.9893 174.935 28.2427 174.381 27.432C173.826 26.6213 172.845 26.216 171.437 26.216C170.071 26.216 168.919 26.6853 167.981 27.624C167.042 28.52 166.445 29.736 166.189 31.272L165.357 36.072C165.271 36.4987 165.229 37.0533 165.229 37.736C165.229 38.376 165.506 39.08 166.061 39.848C166.615 40.616 167.575 41 168.941 41C170.349 41 171.522 40.5307 172.461 39.592C173.399 38.6107 173.997 37.4373 174.253 36.072L175.085 31.272ZM218.506 50.024C217.567 55.4427 215.412 59.7307 212.042 62.888C208.714 66.0453 204.895 67.624 200.586 67.624C196.276 67.624 193.162 66.8347 191.242 65.256C189.364 63.6773 188.425 61.608 188.425 59.048C188.425 55.2933 190.815 52.0293 195.594 49.256C191.967 48.104 190.154 45.352 190.154 41C190.154 39.9333 190.26 38.76 190.474 37.48L191.754 29.992C192.436 26.152 194.015 23.1013 196.49 20.84C198.964 18.536 202.164 17.384 206.09 17.384C210.058 17.384 212.767 18.344 214.218 20.264L214.602 18.216H224.138L218.506 50.024ZM201.61 36.072C201.524 36.456 201.482 36.9893 201.482 37.672C201.482 38.3547 201.802 39.0373 202.442 39.72C203.082 40.36 204.148 40.68 205.642 40.68C207.178 40.68 208.5 40.0827 209.61 38.888L211.53 28.136C210.932 27.0693 209.802 26.536 208.138 26.536C206.474 26.536 205.172 26.9627 204.234 27.816C203.295 28.6693 202.698 29.8213 202.442 31.272L201.61 36.072ZM202.058 58.472C204.831 58.472 206.644 55.9547 207.498 50.92L208.138 47.208C202.207 49.9813 199.242 52.776 199.242 55.592C199.242 56.4453 199.476 57.128 199.946 57.64C200.458 58.1947 201.162 58.472 202.058 58.472ZM247.411 34.984H239.795L237.299 49H225.779L233.907 2.92H253.427C258.248 2.92 261.683 4.02933 263.731 6.248C265.224 7.95466 265.971 10.1307 265.971 12.776C265.971 13.672 265.885 14.6107 265.715 15.592L264.435 22.824C263.795 26.3653 261.917 29.288 258.803 31.592C255.688 33.8533 251.891 34.984 247.411 34.984ZM249.395 12.904H243.635L241.523 25H247.219C250.717 25 252.744 23.4427 253.299 20.328L253.747 17.704C253.832 17.32 253.875 16.808 253.875 16.168C253.875 15.528 253.555 14.824 252.915 14.056C252.275 13.288 251.101 12.904 249.395 12.904ZM285.607 17.32C290.215 17.32 293.692 18.3227 296.039 20.328C297.873 21.9067 298.791 24.104 298.791 26.92C298.791 27.8587 298.684 28.8827 298.471 29.992L297.127 37.48C296.316 42.0027 294.417 45.2027 291.431 47.08C288.487 48.9573 284.54 49.896 279.591 49.896C274.641 49.896 271.015 48.9573 268.711 47.08C267.004 45.672 266.151 43.56 266.151 40.744C266.151 39.7627 266.257 38.6747 266.471 37.48L267.815 29.992C269.308 21.544 275.239 17.32 285.607 17.32ZM287.335 31.272C287.42 30.8453 287.463 30.312 287.463 29.672C287.463 28.9893 287.185 28.2427 286.631 27.432C286.076 26.6213 285.095 26.216 283.687 26.216C282.321 26.216 281.169 26.6853 280.231 27.624C279.292 28.52 278.695 29.736 278.439 31.272L277.607 36.072C277.521 36.4987 277.479 37.0533 277.479 37.736C277.479 38.376 277.756 39.08 278.311 39.848C278.865 40.616 279.825 41 281.191 41C282.599 41 283.772 40.5307 284.711 39.592C285.649 38.6107 286.247 37.4373 286.503 36.072L287.335 31.272ZM334.596 24.872C334.596 26.28 334.169 27.5813 333.316 28.776H322.82C323.161 28.52 323.332 28.0933 323.332 27.496C323.332 26.8987 322.99 26.4293 322.308 26.088C321.625 25.704 320.75 25.512 319.684 25.512C316.484 25.512 314.884 26.4933 314.884 28.456C314.884 29.224 315.481 29.7787 316.676 30.12C317.87 30.4613 319.321 30.7387 321.028 30.952C322.734 31.1653 324.441 31.4853 326.148 31.912C327.854 32.296 329.305 33.0853 330.5 34.28C331.694 35.4747 332.292 37.0747 332.292 39.08C332.292 42.6213 330.862 45.3093 328.004 47.144C325.188 48.9787 321.07 49.896 315.652 49.896C310.233 49.896 306.436 49.0213 304.26 47.272C302.553 45.9067 301.7 44.0293 301.7 41.64C301.7 40.9573 301.764 40.2533 301.892 39.528L312.58 39.4C312.494 39.9973 312.836 40.5307 313.604 41C314.414 41.4267 315.588 41.64 317.124 41.64C318.66 41.64 319.769 41.4907 320.452 41.192C321.134 40.8507 321.476 40.232 321.476 39.336C321.476 38.7387 320.878 38.3333 319.684 38.12C318.489 37.864 317.017 37.6507 315.268 37.48C313.561 37.3093 311.833 37.032 310.084 36.648C308.377 36.264 306.926 35.4533 305.732 34.216C304.537 32.9787 303.94 31.3573 303.94 29.352C303.94 25.4693 305.433 22.4827 308.42 20.392C311.449 18.3013 315.801 17.256 321.476 17.256C330.222 17.256 334.596 19.7947 334.596 24.872ZM351.417 49.896C346.467 49.896 342.905 48.7867 340.729 46.568C339.107 44.9467 338.297 42.7707 338.297 40.04C338.297 39.144 338.382 38.184 338.553 37.16L342.905 12.392L354.617 7.528L352.76 18.216H370.425L368.825 27.24H351.161L349.881 34.472C349.71 35.2827 349.625 36.008 349.625 36.648C349.625 39.336 350.905 40.68 353.465 40.68C354.83 40.68 355.961 40.104 356.857 38.952C357.795 37.8 358.435 36.264 358.777 34.344H369.401C367.609 44.712 361.614 49.896 351.417 49.896ZM404.846 24.872C404.846 26.28 404.419 27.5813 403.566 28.776H393.07C393.411 28.52 393.582 28.0933 393.582 27.496C393.582 26.8987 393.24 26.4293 392.558 26.088C391.875 25.704 391 25.512 389.934 25.512C386.734 25.512 385.134 26.4933 385.134 28.456C385.134 29.224 385.731 29.7787 386.926 30.12C388.12 30.4613 389.571 30.7387 391.278 30.952C392.984 31.1653 394.691 31.4853 396.398 31.912C398.104 32.296 399.555 33.0853 400.75 34.28C401.944 35.4747 402.542 37.0747 402.542 39.08C402.542 42.6213 401.112 45.3093 398.254 47.144C395.438 48.9787 391.32 49.896 385.902 49.896C380.483 49.896 376.686 49.0213 374.51 47.272C372.803 45.9067 371.95 44.0293 371.95 41.64C371.95 40.9573 372.014 40.2533 372.142 39.528L382.83 39.4C382.744 39.9973 383.086 40.5307 383.854 41C384.664 41.4267 385.838 41.64 387.374 41.64C388.91 41.64 390.019 41.4907 390.702 41.192C391.384 40.8507 391.726 40.232 391.726 39.336C391.726 38.7387 391.128 38.3333 389.934 38.12C388.739 37.864 387.267 37.6507 385.518 37.48C383.811 37.3093 382.083 37.032 380.334 36.648C378.627 36.264 377.176 35.4533 375.982 34.216C374.787 32.9787 374.19 31.3573 374.19 29.352C374.19 25.4693 375.683 22.4827 378.67 20.392C381.699 18.3013 386.051 17.256 391.726 17.256C400.472 17.256 404.846 19.7947 404.846 24.872Z" fill="url(#paint0_linear_1_2)"/>
</g>
<defs>
<filter id="filter0_i_1_2" x="0.216003" y="0.423996" width="404.629" height="71.2" filterUnits="userSpaceOnUse" color-interpolation-filters="sRGB">
<feFlood flood-opacity="0" result="BackgroundImageFix"/>
<feBlend mode="normal" in="SourceGraphic" in2="BackgroundImageFix" result="shape"/>
<feColorMatrix in="SourceAlpha" type="matrix" values="0 0 0 0 0 0 0 0 0 0 0 0 0 0 0 0 0 0 127 0" result="hardAlpha"/>
<feOffset dy="4"/>
<feGaussianBlur stdDeviation="2"/>
<feComposite in2="hardAlpha" operator="arithmetic" k2="-1" k3="1"/>
<feColorMatrix type="matrix" values="0 0 0 0 0 0 0 0 0 0 0 0 0 0 0 0 0 0 0.25 0"/>
<feBlend mode="normal" in2="shape" result="effect1_innerShadow_1_2"/>
</filter>
<linearGradient id="paint0_linear_1_2" x1="-1" y1="29" x2="407" y2="29" gradientUnits="userSpaceOnUse">
<stop offset="0.168269" stop-color="#535353"/>
<stop offset="1" stop-color="#FF4D00"/>
</linearGradient>
</defs>
</svg>
