<svg width="315" height="50" viewBox="0 0 315 50" fill="none" xmlns="http://www.w3.org/2000/svg">
<g filter="url(#filter0_i_1_2)">
<path d="M37.008 2.92L35.92 37.8H37.392L48.528 2.92H61.072L45.264 49H26.064L27.792 19.496L19.216 49H0.0160003L0.464 2.92H13.008L11.856 37.8H13.328L24.528 2.92H37.008ZM77.294 17.32C81.902 17.32 85.3793 18.3227 87.726 20.328C89.5607 21.9067 90.478 24.104 90.478 26.92C90.478 27.8587 90.3713 28.8827 90.158 29.992L88.814 37.48C88.0033 42.0027 86.1047 45.2027 83.118 47.08C80.174 48.9573 76.2273 49.896 71.278 49.896C66.3287 49.896 62.702 48.9573 60.398 47.08C58.6913 45.672 57.838 43.56 57.838 40.744C57.838 39.7627 57.9447 38.6747 58.158 37.48L59.502 29.992C60.9953 21.544 66.926 17.32 77.294 17.32ZM79.022 31.272C79.1073 30.8453 79.15 30.312 79.15 29.672C79.15 28.9893 78.8727 28.2427 78.318 27.432C77.7633 26.6213 76.782 26.216 75.374 26.216C74.0087 26.216 72.8567 26.6853 71.918 27.624C70.9793 28.52 70.382 29.736 70.126 31.272L69.294 36.072C69.2087 36.4987 69.166 37.0533 69.166 37.736C69.166 38.376 69.4433 39.08 69.998 39.848C70.5527 40.616 71.5127 41 72.878 41C74.286 41 75.4593 40.5307 76.398 39.592C77.3367 38.6107 77.934 37.4373 78.19 36.072L79.022 31.272ZM125.323 24.744C125.323 26.1947 125.067 27.6027 124.555 28.968C124.086 30.3333 123.616 31.336 123.147 31.976L122.443 32.872H112.779C113.846 31.8907 114.379 30.6747 114.379 29.224C114.379 28.456 114.123 27.8373 113.611 27.368C113.142 26.856 112.48 26.6 111.627 26.6C110.176 26.6 108.918 27.3253 107.851 28.776L104.267 49H93.387L98.827 18.216H108.939L108.171 22.504C110.603 19.048 113.547 17.32 117.003 17.32C119.776 17.32 121.846 17.9813 123.211 19.304C124.619 20.6267 125.323 22.44 125.323 24.744ZM157.174 39.144C157.174 40.2533 157.729 40.808 158.838 40.808C159.99 40.808 160.95 40.5947 161.718 40.168L161.398 47.4C159.35 49.064 157.046 49.896 154.486 49.896C149.793 49.896 147.19 48.1893 146.678 44.776C144.545 48.1893 141.409 49.896 137.27 49.896C130.273 49.896 126.774 46.888 126.774 40.872C126.774 39.848 126.881 38.7173 127.094 37.48L128.438 29.992C129.121 26.152 130.678 23.1013 133.11 20.84C135.585 18.536 138.998 17.384 143.35 17.384C146.038 17.384 148.171 17.96 149.75 19.112L153.014 0.423996H163.958L157.238 38.376C157.195 38.632 157.174 38.888 157.174 39.144ZM138.23 36.072C138.145 36.456 138.102 36.9893 138.102 37.672C138.102 38.3547 138.422 39.0373 139.062 39.72C139.702 40.36 140.769 40.68 142.262 40.68C143.798 40.68 145.121 40.0827 146.23 38.888L148.15 28.136C147.681 27.0693 146.571 26.536 144.822 26.536C141.537 26.536 139.617 28.1147 139.062 31.272L138.23 36.072ZM210.364 2.92L202.3 49H190.716L182.652 23.784L178.3 49H166.716L174.844 2.92H186.748L194.684 26.472L198.844 2.92H210.364ZM224.461 49.896C215.586 49.896 211.149 46.824 211.149 40.68C211.149 39.8267 211.234 38.9093 211.405 37.928L212.749 29.992C213.474 25.896 215.352 22.76 218.381 20.584C221.453 18.3653 225.506 17.256 230.541 17.256C239.117 17.256 243.405 20.4987 243.405 26.984C243.405 27.9227 243.32 28.9467 243.149 30.056L242.381 34.6H222.861L222.605 36.072C222.52 36.584 222.477 37.0533 222.477 37.48C222.477 39.8267 223.864 41 226.637 41C227.661 41 228.536 40.68 229.261 40.04C229.986 39.4 230.413 38.6533 230.541 37.8L241.165 37.928C239.757 45.9067 234.189 49.896 224.461 49.896ZM232.141 30.696C232.312 29.9707 232.397 29.3093 232.397 28.712C232.397 28.072 232.12 27.432 231.565 26.792C231.01 26.152 230.114 25.832 228.877 25.832C227.682 25.832 226.573 26.2373 225.549 27.048C224.568 27.8587 223.885 29.0747 223.501 30.696H232.141ZM278.846 24.872C278.846 26.28 278.419 27.5813 277.566 28.776H267.07C267.411 28.52 267.582 28.0933 267.582 27.496C267.582 26.8987 267.24 26.4293 266.558 26.088C265.875 25.704 265 25.512 263.934 25.512C260.734 25.512 259.134 26.4933 259.134 28.456C259.134 29.224 259.731 29.7787 260.926 30.12C262.12 30.4613 263.571 30.7387 265.278 30.952C266.984 31.1653 268.691 31.4853 270.398 31.912C272.104 32.296 273.555 33.0853 274.75 34.28C275.944 35.4747 276.542 37.0747 276.542 39.08C276.542 42.6213 275.112 45.3093 272.254 47.144C269.438 48.9787 265.32 49.896 259.902 49.896C254.483 49.896 250.686 49.0213 248.51 47.272C246.803 45.9067 245.95 44.0293 245.95 41.64C245.95 40.9573 246.014 40.2533 246.142 39.528L256.83 39.4C256.744 39.9973 257.086 40.5307 257.854 41C258.664 41.4267 259.838 41.64 261.374 41.64C262.91 41.64 264.019 41.4907 264.702 41.192C265.384 40.8507 265.726 40.232 265.726 39.336C265.726 38.7387 265.128 38.3333 263.934 38.12C262.739 37.864 261.267 37.6507 259.518 37.48C257.811 37.3093 256.083 37.032 254.334 36.648C252.627 36.264 251.176 35.4533 249.982 34.216C248.787 32.9787 248.19 31.3573 248.19 29.352C248.19 25.4693 249.683 22.4827 252.67 20.392C255.699 18.3013 260.051 17.256 265.726 17.256C274.472 17.256 278.846 19.7947 278.846 24.872ZM295.667 49.896C290.717 49.896 287.155 48.7867 284.979 46.568C283.357 44.9467 282.547 42.7707 282.547 40.04C282.547 39.144 282.632 38.184 282.803 37.16L287.155 12.392L298.867 7.528L297.01 18.216H314.675L313.075 27.24H295.411L294.131 34.472C293.96 35.2827 293.875 36.008 293.875 36.648C293.875 39.336 295.155 40.68 297.715 40.68C299.08 40.68 300.211 40.104 301.107 38.952C302.045 37.8 302.685 36.264 303.027 34.344H313.651C311.859 44.712 305.864 49.896 295.667 49.896Z" fill="url(#paint0_linear_1_2)"/>
</g>
<defs>
<filter id="filter0_i_1_2" x="0.0160065" y="0.423996" width="314.659" height="53.472" filterUnits="userSpaceOnUse" color-interpolation-filters="sRGB">
<feFlood flood-opacity="0" result="BackgroundImageFix"/>
<feBlend mode="normal" in="SourceGraphic" in2="BackgroundImageFix" result="shape"/>
<feColorMatrix in="SourceAlpha" type="matrix" values="0 0 0 0 0 0 0 0 0 0 0 0 0 0 0 0 0 0 127 0" result="hardAlpha"/>
<feOffset dy="4"/>
<feGaussianBlur stdDeviation="2"/>
<feComposite in2="hardAlpha" operator="arithmetic" k2="-1" k3="1"/>
<feColorMatrix type="matrix" values="0 0 0 0 0 0 0 0 0 0 0 0 0 0 0 0 0 0 0.25 0"/>
<feBlend mode="normal" in2="shape" result="effect1_innerShadow_1_2"/>
</filter>
<linearGradient id="paint0_linear_1_2" x1="-6" y1="29" x2="316" y2="29" gradientUnits="userSpaceOnUse">
<stop stop-color="#FFA500"/>
<stop offset="0.600962" stop-color="#FF4D00"/>
</linearGradient>
</defs>
</svg>
